<svg width="319" height="199" viewBox="0 0 319 199" fill="none" xmlns="http://www.w3.org/2000/svg">
<mask id="path-1-outside-1_1_12" maskUnits="userSpaceOnUse" x="100" y="82" width="215" height="59" fill="black">
<rect fill="white" x="100" y="82" width="215" height="59"/>
<path d="M101.898 139V126.871H107.523V95.1602H101.898V83.0312H127.422C137.805 83.0312 145.703 85.4219 151.117 90.2031C156.531 94.9609 159.238 101.922 159.238 111.086C159.238 120.227 156.543 127.164 151.152 131.898C145.762 136.633 137.84 139 127.387 139H101.898ZM125.805 127.223H127.738C131.863 127.223 134.816 125.98 136.598 123.496C138.379 120.988 139.27 116.816 139.27 110.98C139.27 105.168 138.379 101.02 136.598 98.5352C134.816 96.0508 131.863 94.8086 127.738 94.8086H125.805V127.223ZM163.703 139V126.871H169.68V95.1602H163.703V83.0312H193.938V95.1602H187.961V126.871H193.938V139H163.703ZM234.402 139.035L215.172 107.008V126.871H220.797V139H198.086V126.871H203.711V95.1602H198.086V83.0312H223.223L242.523 115.059V95.1602H236.898V83.0312H259.609V95.1602H253.984V139L234.402 139.035ZM264.109 139V126.871H269.734V95.1602H264.109V83.0312H313.891V105.285H302.289L301.059 94.9844H287.594V104.477H297.086V116.43H287.594V127.047H301.059L302.289 115.199H313.891V139H264.109Z"/>
</mask>
<path d="M101.898 139V126.871H107.523V95.1602H101.898V83.0312H127.422C137.805 83.0312 145.703 85.4219 151.117 90.2031C156.531 94.9609 159.238 101.922 159.238 111.086C159.238 120.227 156.543 127.164 151.152 131.898C145.762 136.633 137.84 139 127.387 139H101.898ZM125.805 127.223H127.738C131.863 127.223 134.816 125.98 136.598 123.496C138.379 120.988 139.27 116.816 139.27 110.98C139.27 105.168 138.379 101.02 136.598 98.5352C134.816 96.0508 131.863 94.8086 127.738 94.8086H125.805V127.223ZM163.703 139V126.871H169.68V95.1602H163.703V83.0312H193.938V95.1602H187.961V126.871H193.938V139H163.703ZM234.402 139.035L215.172 107.008V126.871H220.797V139H198.086V126.871H203.711V95.1602H198.086V83.0312H223.223L242.523 115.059V95.1602H236.898V83.0312H259.609V95.1602H253.984V139L234.402 139.035ZM264.109 139V126.871H269.734V95.1602H264.109V83.0312H313.891V105.285H302.289L301.059 94.9844H287.594V104.477H297.086V116.43H287.594V127.047H301.059L302.289 115.199H313.891V139H264.109Z" fill="black"/>
<path d="M101.898 139H100.898V140H101.898V139ZM101.898 126.871V125.871H100.898V126.871H101.898ZM107.523 126.871V127.871H108.523V126.871H107.523ZM107.523 95.1602H108.523V94.1602H107.523V95.1602ZM101.898 95.1602H100.898V96.1602H101.898V95.1602ZM101.898 83.0312V82.0312H100.898V83.0312H101.898ZM151.117 90.2031L150.455 90.9527L150.457 90.9543L151.117 90.2031ZM151.152 131.898L150.492 131.147L151.152 131.898ZM125.805 127.223H124.805V128.223H125.805V127.223ZM136.598 123.496L137.41 124.079L137.413 124.075L136.598 123.496ZM125.805 94.8086V93.8086H124.805V94.8086H125.805ZM102.898 139V126.871H100.898V139H102.898ZM101.898 127.871H107.523V125.871H101.898V127.871ZM108.523 126.871V95.1602H106.523V126.871H108.523ZM107.523 94.1602H101.898V96.1602H107.523V94.1602ZM102.898 95.1602V83.0312H100.898V95.1602H102.898ZM101.898 84.0312H127.422V82.0312H101.898V84.0312ZM127.422 84.0312C137.666 84.0312 145.29 86.391 150.455 90.9527L151.779 89.4536C146.116 84.4527 137.943 82.0312 127.422 82.0312V84.0312ZM150.457 90.9543C155.599 95.4732 158.238 102.126 158.238 111.086H160.238C160.238 101.718 157.463 94.4487 151.777 89.452L150.457 90.9543ZM158.238 111.086C158.238 120.023 155.611 126.652 150.492 131.147L151.812 132.65C157.475 127.676 160.238 120.43 160.238 111.086H158.238ZM150.492 131.147C145.352 135.662 137.706 138 127.387 138V140C137.974 140 146.171 137.604 151.812 132.65L150.492 131.147ZM127.387 138H101.898V140H127.387V138ZM125.805 128.223H127.738V126.223H125.805V128.223ZM127.738 128.223C132.063 128.223 135.38 126.911 137.41 124.079L135.785 122.913C134.253 125.05 131.664 126.223 127.738 126.223V128.223ZM137.413 124.075C139.382 121.303 140.27 116.865 140.27 110.98H138.27C138.27 116.768 137.376 120.673 135.782 122.917L137.413 124.075ZM140.27 110.98C140.27 105.12 139.382 100.702 137.41 97.9525L135.785 99.1178C137.376 101.337 138.27 105.216 138.27 110.98H140.27ZM137.41 97.9525C135.38 95.1203 132.063 93.8086 127.738 93.8086V95.8086C131.664 95.8086 134.253 96.9813 135.785 99.1178L137.41 97.9525ZM127.738 93.8086H125.805V95.8086H127.738V93.8086ZM124.805 94.8086V127.223H126.805V94.8086H124.805ZM163.703 139H162.703V140H163.703V139ZM163.703 126.871V125.871H162.703V126.871H163.703ZM169.68 126.871V127.871H170.68V126.871H169.68ZM169.68 95.1602H170.68V94.1602H169.68V95.1602ZM163.703 95.1602H162.703V96.1602H163.703V95.1602ZM163.703 83.0312V82.0312H162.703V83.0312H163.703ZM193.938 83.0312H194.938V82.0312H193.938V83.0312ZM193.938 95.1602V96.1602H194.938V95.1602H193.938ZM187.961 95.1602V94.1602H186.961V95.1602H187.961ZM187.961 126.871H186.961V127.871H187.961V126.871ZM193.938 126.871H194.938V125.871H193.938V126.871ZM193.938 139V140H194.938V139H193.938ZM164.703 139V126.871H162.703V139H164.703ZM163.703 127.871H169.68V125.871H163.703V127.871ZM170.68 126.871V95.1602H168.68V126.871H170.68ZM169.68 94.1602H163.703V96.1602H169.68V94.1602ZM164.703 95.1602V83.0312H162.703V95.1602H164.703ZM163.703 84.0312H193.938V82.0312H163.703V84.0312ZM192.938 83.0312V95.1602H194.938V83.0312H192.938ZM193.938 94.1602H187.961V96.1602H193.938V94.1602ZM186.961 95.1602V126.871H188.961V95.1602H186.961ZM187.961 127.871H193.938V125.871H187.961V127.871ZM192.938 126.871V139H194.938V126.871H192.938ZM193.938 138H163.703V140H193.938V138ZM234.402 139.035L233.545 139.55L233.837 140.036L234.404 140.035L234.402 139.035ZM215.172 107.008L216.029 106.493L214.172 103.4V107.008H215.172ZM215.172 126.871H214.172V127.871H215.172V126.871ZM220.797 126.871H221.797V125.871H220.797V126.871ZM220.797 139V140H221.797V139H220.797ZM198.086 139H197.086V140H198.086V139ZM198.086 126.871V125.871H197.086V126.871H198.086ZM203.711 126.871V127.871H204.711V126.871H203.711ZM203.711 95.1602H204.711V94.1602H203.711V95.1602ZM198.086 95.1602H197.086V96.1602H198.086V95.1602ZM198.086 83.0312V82.0312H197.086V83.0312H198.086ZM223.223 83.0312L224.079 82.5151L223.788 82.0312H223.223V83.0312ZM242.523 115.059L241.667 115.575L243.523 118.655V115.059H242.523ZM242.523 95.1602H243.523V94.1602H242.523V95.1602ZM236.898 95.1602H235.898V96.1602H236.898V95.1602ZM236.898 83.0312V82.0312H235.898V83.0312H236.898ZM259.609 83.0312H260.609V82.0312H259.609V83.0312ZM259.609 95.1602V96.1602H260.609V95.1602H259.609ZM253.984 95.1602V94.1602H252.984V95.1602H253.984ZM253.984 139L253.986 140L254.984 139.998V139H253.984ZM235.26 138.52L216.029 106.493L214.315 107.523L233.545 139.55L235.26 138.52ZM214.172 107.008V126.871H216.172V107.008H214.172ZM215.172 127.871H220.797V125.871H215.172V127.871ZM219.797 126.871V139H221.797V126.871H219.797ZM220.797 138H198.086V140H220.797V138ZM199.086 139V126.871H197.086V139H199.086ZM198.086 127.871H203.711V125.871H198.086V127.871ZM204.711 126.871V95.1602H202.711V126.871H204.711ZM203.711 94.1602H198.086V96.1602H203.711V94.1602ZM199.086 95.1602V83.0312H197.086V95.1602H199.086ZM198.086 84.0312H223.223V82.0312H198.086V84.0312ZM222.366 83.5474L241.667 115.575L243.38 114.542L224.079 82.5151L222.366 83.5474ZM243.523 115.059V95.1602H241.523V115.059H243.523ZM242.523 94.1602H236.898V96.1602H242.523V94.1602ZM237.898 95.1602V83.0312H235.898V95.1602H237.898ZM236.898 84.0312H259.609V82.0312H236.898V84.0312ZM258.609 83.0312V95.1602H260.609V83.0312H258.609ZM259.609 94.1602H253.984V96.1602H259.609V94.1602ZM252.984 95.1602V139H254.984V95.1602H252.984ZM253.983 138L234.401 138.035L234.404 140.035L253.986 140L253.983 138ZM264.109 139H263.109V140H264.109V139ZM264.109 126.871V125.871H263.109V126.871H264.109ZM269.734 126.871V127.871H270.734V126.871H269.734ZM269.734 95.1602H270.734V94.1602H269.734V95.1602ZM264.109 95.1602H263.109V96.1602H264.109V95.1602ZM264.109 83.0312V82.0312H263.109V83.0312H264.109ZM313.891 83.0312H314.891V82.0312H313.891V83.0312ZM313.891 105.285V106.285H314.891V105.285H313.891ZM302.289 105.285L301.296 105.404L301.401 106.285H302.289V105.285ZM301.059 94.9844L302.052 94.8658L301.946 93.9844H301.059V94.9844ZM287.594 94.9844V93.9844H286.594V94.9844H287.594ZM287.594 104.477H286.594V105.477H287.594V104.477ZM297.086 104.477H298.086V103.477H297.086V104.477ZM297.086 116.43V117.43H298.086V116.43H297.086ZM287.594 116.43V115.43H286.594V116.43H287.594ZM287.594 127.047H286.594V128.047H287.594V127.047ZM301.059 127.047V128.047H301.96L302.053 127.15L301.059 127.047ZM302.289 115.199V114.199H301.388L301.294 115.096L302.289 115.199ZM313.891 115.199H314.891V114.199H313.891V115.199ZM313.891 139V140H314.891V139H313.891ZM265.109 139V126.871H263.109V139H265.109ZM264.109 127.871H269.734V125.871H264.109V127.871ZM270.734 126.871V95.1602H268.734V126.871H270.734ZM269.734 94.1602H264.109V96.1602H269.734V94.1602ZM265.109 95.1602V83.0312H263.109V95.1602H265.109ZM264.109 84.0312H313.891V82.0312H264.109V84.0312ZM312.891 83.0312V105.285H314.891V83.0312H312.891ZM313.891 104.285H302.289V106.285H313.891V104.285ZM303.282 105.167L302.052 94.8658L300.066 95.103L301.296 105.404L303.282 105.167ZM301.059 93.9844H287.594V95.9844H301.059V93.9844ZM286.594 94.9844V104.477H288.594V94.9844H286.594ZM287.594 105.477H297.086V103.477H287.594V105.477ZM296.086 104.477V116.43H298.086V104.477H296.086ZM297.086 115.43H287.594V117.43H297.086V115.43ZM286.594 116.43V127.047H288.594V116.43H286.594ZM287.594 128.047H301.059V126.047H287.594V128.047ZM302.053 127.15L303.284 115.303L301.294 115.096L300.064 126.944L302.053 127.15ZM302.289 116.199H313.891V114.199H302.289V116.199ZM312.891 115.199V139H314.891V115.199H312.891ZM313.891 138H264.109V140H313.891V138Z" fill="black" mask="url(#path-1-outside-1_1_12)"/>
<g filter="url(#filter0_d_1_12)">
<path d="M49.392 80.4872C49.392 80.4872 49.8548 79.5843 50.7804 77.7785C51.8444 75.9356 53.3187 73.6861 55.2033 71.0298C57.0879 68.3736 59.3371 65.6938 61.9509 62.9906C64.6525 60.338 67.7168 58.0704 71.144 56.1877C74.5711 54.305 78.3086 53.3036 82.3563 53.1834C86.4547 52.9754 90.7924 54.0756 95.3694 56.4841C102.542 60.2742 107.739 64.4451 110.962 68.9968C114.323 73.5115 116.219 78.2333 116.649 83.1622C117.08 88.0912 116.536 92.9844 115.019 97.8418C113.64 102.662 111.728 107.292 109.282 111.73C104.53 120.57 100.188 127.483 96.2565 132.468C92.376 137.365 89.0904 139.914 86.3998 140.116L89.4558 148.199C89.4558 148.199 89.6548 148.665 90.0529 149.597C90.5016 150.441 90.5165 151.327 90.0976 152.255C89.7293 153.096 88.3636 153.536 86.0005 153.575C83.6373 153.615 81.5732 152.833 79.8082 151.229C78.0431 149.625 76.6426 147.997 75.6067 146.346C74.5708 144.695 73.9905 143.775 73.8656 143.586C73.8285 143.447 72.8935 143.141 71.0606 142.668C69.2783 142.107 67.1635 141.413 64.7162 140.585C62.3196 139.669 60.0243 138.578 57.8304 137.311C56.5141 136.551 54.7033 135.33 52.3981 133.649C50.0929 131.967 47.8216 129.719 45.5843 126.906C43.3976 124.006 41.7733 120.435 40.7112 116.195C39.6492 111.954 39.7031 106.896 40.8731 101.018C42.043 95.1414 44.8827 88.2976 49.392 80.4872ZM74.5013 119.381C74.5013 119.381 75.2916 118.316 76.8722 116.186C78.5035 113.969 80.4709 111.068 82.7744 107.483C85.1657 103.949 87.4828 100.139 89.7257 96.0513C91.9686 91.9638 93.7962 87.9875 95.2086 84.1226C96.7594 80.2205 97.4407 76.8111 97.2526 73.8942C97.2029 70.9403 95.892 68.9549 93.3199 67.9379C91.6389 67.2014 89.777 67.589 87.7341 69.1008C85.7418 70.5248 83.7849 72.4957 81.8632 75.0135C79.9415 77.5313 78.1953 80.1504 76.6246 82.8709C75.054 85.5914 73.7805 87.8984 72.8043 89.792C71.8787 91.5978 71.4159 92.5007 71.4159 92.5007C71.4159 92.5007 70.8586 93.466 69.7439 95.3967C68.7677 97.2903 67.6005 99.7172 66.2425 102.677C64.9351 105.55 63.7778 108.568 62.7708 111.73C61.7638 114.893 61.2295 117.744 61.1679 120.283C61.157 122.734 61.9599 124.484 63.5766 125.535C63.5766 125.535 63.4468 125.05 63.1872 124.081C63.0153 123.163 62.9194 122.113 62.8995 120.932C62.8796 119.75 63.1923 118.702 63.8373 117.787C64.6209 116.835 65.9612 116.439 67.8584 116.598C71.4773 116.816 73.6916 117.743 74.5013 119.381Z" fill="#FF9633"/>
</g>
<path d="M52.6643 47.5899C51.3332 47.223 49.9568 48.0046 49.5899 49.3357L43.6112 71.0268C43.2443 72.3579 44.0259 73.7344 45.357 74.1013C46.6881 74.4681 48.0645 73.6865 48.4314 72.3554L53.7458 53.0744L73.0268 58.3888C74.3579 58.7557 75.7344 57.9741 76.1012 56.643C76.4681 55.3119 75.6865 53.9355 74.3554 53.5686L52.6643 47.5899ZM109.452 146.112L54.1739 48.7655L49.826 51.2345L105.104 148.581L109.452 146.112Z" fill="black"/>
<path d="M36.4466 137.034C36.4072 138.414 37.494 139.565 38.8742 139.604L61.365 140.247C62.7451 140.287 63.8959 139.2 63.9354 137.82C63.9748 136.439 62.888 135.289 61.5078 135.249L41.516 134.678L42.0874 114.686C42.1268 113.306 41.04 112.155 39.6598 112.116C38.2797 112.076 37.1288 113.163 37.0894 114.543L36.4466 137.034ZM40.6621 138.923L122.049 62.0585L118.616 58.4234L37.229 135.288L40.6621 138.923Z" fill="black"/>
<defs>
<filter id="filter0_d_1_12" x="21.8524" y="42.1052" width="115.393" height="122.57" filterUnits="userSpaceOnUse" color-interpolation-filters="sRGB">
<feFlood flood-opacity="0" result="BackgroundImageFix"/>
<feColorMatrix in="SourceAlpha" type="matrix" values="0 0 0 0 0 0 0 0 0 0 0 0 0 0 0 0 0 0 127 0" result="hardAlpha"/>
<feOffset dy="4"/>
<feGaussianBlur stdDeviation="2"/>
<feComposite in2="hardAlpha" operator="out"/>
<feColorMatrix type="matrix" values="0 0 0 0 0 0 0 0 0 0 0 0 0 0 0 0 0 0 0.85 0"/>
<feBlend mode="normal" in2="BackgroundImageFix" result="effect1_dropShadow_1_12"/>
<feBlend mode="normal" in="SourceGraphic" in2="effect1_dropShadow_1_12" result="shape"/>
</filter>
</defs>
</svg>
