<?xml version="1.0" encoding="UTF-8"?>
<svg version="1.1" xmlns="http://www.w3.org/2000/svg" width="100" height="100">
<path d="M0 0 C0.79249146 -0.0087616 1.58498291 -0.01752319 2.40148926 -0.02655029 C5.01301325 -0.04850145 7.62283474 -0.0340079 10.234375 -0.01708984 C12.05371423 -0.02045924 13.87305127 -0.02531288 15.69238281 -0.03158569 C19.5021715 -0.03895118 23.31137337 -0.02826218 27.12109375 -0.00488281 C32.00065826 0.02360505 36.87884775 0.00719931 41.75836182 -0.02274513 C45.51426524 -0.04082702 49.26984353 -0.03505605 53.02575684 -0.02210617 C54.824668 -0.01877461 56.62360885 -0.02285047 58.42248535 -0.03450394 C60.9387003 -0.04722781 63.45269979 -0.02781685 65.96875 0 C67.08014343 -0.01518173 67.08014343 -0.01518173 68.21398926 -0.03067017 C72.02131306 0.04717102 73.85987227 0.55444938 76.94491577 2.84707642 C79.20365856 5.94801874 79.61522892 7.31127961 79.63134766 11.09228516 C79.64710846 12.15688965 79.66286926 13.22149414 79.67910767 14.31835938 C79.66898651 15.45805176 79.65886536 16.59774414 79.6484375 17.77197266 C79.65322113 18.95162598 79.65800476 20.1312793 79.66293335 21.34667969 C79.66633227 23.83806697 79.65713065 26.32949885 79.63623047 28.82080078 C79.60946843 32.63366165 79.63598243 36.44357833 79.66796875 40.25634766 C79.66466466 42.67822915 79.65825844 45.10010882 79.6484375 47.52197266 C79.66361923 49.23151123 79.66361923 49.23151123 79.67910767 50.97558594 C79.66334686 52.04019043 79.64758606 53.10479492 79.63134766 54.20166016 C79.62538071 55.60134033 79.62538071 55.60134033 79.61929321 57.02929688 C78.68939073 60.86315006 77.13007351 62.30927031 73.984375 64.64697266 C71.11283217 65.14231665 68.83419078 65.33308749 65.96875 65.29394531 C65.17625854 65.30270691 64.38376709 65.31146851 63.56726074 65.32049561 C60.95573675 65.34244676 58.34591526 65.32795321 55.734375 65.31103516 C53.91503577 65.31440455 52.09569873 65.3192582 50.27636719 65.32553101 C46.4665785 65.33289649 42.65737663 65.32220749 38.84765625 65.29882812 C33.96809174 65.27034026 29.08990225 65.28674601 24.21038818 65.31669044 C20.45448476 65.33477234 16.69890647 65.32900136 12.94299316 65.31605148 C11.144082 65.31271992 9.34514115 65.31679578 7.54626465 65.32844925 C5.0300497 65.34117312 2.51605021 65.32176216 0 65.29394531 C-0.74092896 65.30406647 -1.48185791 65.31418762 -2.24523926 65.32461548 C-6.05256306 65.24677429 -7.89112227 64.73949593 -10.97616577 62.4468689 C-13.23490856 59.34592658 -13.64647892 57.9826657 -13.66259766 54.20166016 C-13.67835846 53.13705566 -13.69411926 52.07245117 -13.71035767 50.97558594 C-13.70023651 49.83589355 -13.69011536 48.69620117 -13.6796875 47.52197266 C-13.68447113 46.34231934 -13.68925476 45.16266602 -13.69418335 43.94726562 C-13.69758227 41.45587835 -13.68838065 38.96444646 -13.66748047 36.47314453 C-13.64071843 32.66028366 -13.66723243 28.85036698 -13.69921875 25.03759766 C-13.69591466 22.61571616 -13.68950844 20.19383649 -13.6796875 17.77197266 C-13.68980865 16.63228027 -13.69992981 15.49258789 -13.71035767 14.31835938 C-13.69459686 13.25375488 -13.67883606 12.18915039 -13.66259766 11.09228516 C-13.65861969 10.15916504 -13.65464172 9.22604492 -13.65054321 8.26464844 C-11.89922865 1.04423229 -6.60480829 -0.09022226 0 0 Z M-8.015625 7.64697266 C-8.345625 9.95697266 -8.675625 12.26697266 -9.015625 14.64697266 C18.704375 14.64697266 46.424375 14.64697266 74.984375 14.64697266 C74.79178565 7.96574814 74.79178565 7.96574814 71.86547852 5.73373413 C68.37239295 4.41613107 65.62255376 4.26590591 61.88671875 4.25878906 C61.191763 4.2535321 60.49680725 4.24827515 59.78079224 4.24285889 C57.4942547 4.22970536 55.20841905 4.23837994 52.921875 4.24853516 C51.32674018 4.24651307 49.73160627 4.24360051 48.13647461 4.23983765 C44.79759904 4.23542061 41.45896467 4.24182521 38.12011719 4.25585938 C33.84617411 4.27295108 29.57279625 4.26310654 25.2988739 4.24514198 C22.00626386 4.23428727 18.71378722 4.23775819 15.4211731 4.24552536 C13.84554985 4.24752271 12.26991439 4.24508444 10.69430542 4.2380867 C8.48988895 4.23044419 6.28638032 4.24211437 4.08203125 4.25878906 C2.82914307 4.26117584 1.57625488 4.26356262 0.28540039 4.26602173 C-3.40001726 4.69133299 -5.25524439 5.15451181 -8.015625 7.64697266 Z M-9.015625 24.64697266 C-11.58810378 51.33133334 -11.58810378 51.33133334 -6.015625 59.64697266 C-2.54183379 60.80490306 0.18907817 60.78819757 3.85498047 60.80810547 C4.89697601 60.81555283 4.89697601 60.81555283 5.96002197 60.82315063 C8.25721224 60.83775095 10.55433346 60.8445705 12.8515625 60.85009766 C14.44955446 60.85585065 16.0475464 60.86160836 17.64553833 60.86737061 C20.99628012 60.87787438 24.34699797 60.88372119 27.69775391 60.88720703 C31.98739216 60.89269198 36.27671304 60.91672245 40.56625175 60.94517899 C43.86741049 60.9638191 47.16849295 60.96901168 50.46969986 60.97054291 C52.05092225 60.97356662 53.63214339 60.9815857 55.21331406 60.99472809 C57.42744738 61.01181862 59.64080761 61.0099015 61.85498047 61.00341797 C63.11390106 61.0070636 64.37282166 61.01070923 65.66989136 61.01446533 C69.26710839 60.61562465 71.15351888 59.87380235 73.984375 57.64697266 C77.46447717 47.20666615 74.984375 35.652022 74.984375 24.64697266 C47.264375 24.64697266 19.544375 24.64697266 -9.015625 24.64697266 Z " fill="#000000" transform="translate(17.015625,17.35302734375)"/>
<path d="M0 0 C10.56 0 21.12 0 32 0 C32 1.32 32 2.64 32 4 C21.44 4 10.88 4 0 4 C0 2.68 0 1.36 0 0 Z " fill="#000000" transform="translate(18,48)"/>
</svg>
